<svg width="446" height="160" viewBox="0 0 446 160" fill="none" xmlns="http://www.w3.org/2000/svg">
<g opacity="0.3">
<mask id="mask0" mask-type="alpha" maskUnits="userSpaceOnUse" x="0" y="0" width="446" height="160">
<rect width="446" height="160" rx="5" fill="#C39367"/>
</mask>
<g mask="url(#mask0)">
<path d="M15.3 28.8H4V40.1H15.3V28.8Z" fill="#C39367"/>
<path d="M38 51.4H26.7V62.7H38V51.4Z" fill="#C39367"/>
<path d="M26.6 40.1H15.3V51.4H26.6V40.1Z" fill="#C39367"/>
<path d="M84.9999 112.3V101H73.6999V89.6H62.3999V123.6H96.3999V112.3H84.9999Z" fill="#C39367"/>
<path d="M447.1 29.7L421.6 55.1999L447.1 80.6999L472.6 55.1999L447.1 29.7ZM447.1 64.6999L437.6 55.1999L447.1 45.6999L456.6 55.1999L447.1 64.6999Z" fill="#C39367"/>
<path d="M433 131.8C418.9 131.8 407.5 143.2 407.5 157.3C407.5 171.4 418.9 182.8 433 182.8C447.1 182.8 458.5 171.4 458.5 157.3C458.5 143.2 447.1 131.8 433 131.8ZM433 171.5C425.2 171.5 418.8 165.2 418.8 157.3C418.8 149.5 425.1 143.1 433 143.1C440.8 143.1 447.2 149.4 447.2 157.3C447.1 165.1 440.8 171.5 433 171.5Z" fill="#C39367"/>
<path d="M454.6 -10.9L446.6 -2.80002L444.6 -0.800024L442.6 -2.90002L434.6 -10.9L426.6 -2.90002L424.6 -0.900024L416.6 7.19998L424.6 15.2L429.4 10.3L434.6 5.19998L436.6 7.19998L444.6 15.2L454.6 5.19998L462.7 -2.80002L454.6 -10.9Z" fill="#C39367"/>
<path d="M317.5 39.6L307.4 29.6L317.5 19.6H317.4H317.5L307.4 9.5L317.5 -0.5L299.4 -18.5L291.4 -10.5L301.4 -0.5L291.4 9.5L301.4 19.6H301.5H301.4L291.4 29.6L301.4 39.6L291.4 49.7L299.4 57.7L317.5 39.6Z" fill="#C39367"/>
<path d="M414.1 106.4L406 98.3L404 96.3L406.1 94.3L414.1 86.3L406.1 78.3L404.1 76.3L396 68.3L388 76.3L392.9 81.1L398 86.3L396 88.3L388 96.3L398 106.4L406 114.4L414.1 106.4Z" fill="#C39367"/>
<path d="M68.1001 46.2V54.2L82.6001 68.7H90.6001V60.7L76.1001 46.2H68.1001Z" fill="#C39367"/>
<path d="M354.8 146.6C357.948 146.6 360.5 144.048 360.5 140.9C360.5 137.752 357.948 135.2 354.8 135.2C351.652 135.2 349.1 137.752 349.1 140.9C349.1 144.048 351.652 146.6 354.8 146.6Z" fill="#C39367"/>
<path d="M381.7 162.2C381.7 165.3 379.2 167.9 376 167.9C372.9 167.9 370.3 165.4 370.3 162.2C370.3 159.1 372.8 156.5 376 156.5C379.2 156.5 381.7 159.1 381.7 162.2Z" fill="#C39367"/>
<path d="M365.5 157.3C368.648 157.3 371.2 154.748 371.2 151.6C371.2 148.452 368.648 145.9 365.5 145.9C362.352 145.9 359.8 148.452 359.8 151.6C359.8 154.748 362.352 157.3 365.5 157.3Z" fill="#C39367"/>
<path d="M354.8 168C357.948 168 360.5 165.448 360.5 162.3C360.5 159.152 357.948 156.6 354.8 156.6C351.652 156.6 349.1 159.152 349.1 162.3C349.1 165.448 351.652 168 354.8 168Z" fill="#C39367"/>
<path d="M381.5 141C381.5 144.1 379 146.7 375.8 146.7C372.6 146.7 370.1 144.2 370.1 141C370.1 137.9 372.6 135.3 375.8 135.3C379 135.3 381.5 137.9 381.5 141Z" fill="#C39367"/>
<path d="M185.737 6.5569L177.747 14.5471L185.737 22.5373L193.727 14.5471L185.737 6.5569Z" fill="#C39367"/>
<path d="M195.727 16.5844L187.736 24.5746L195.727 32.5648L203.717 24.5746L195.727 16.5844Z" fill="#C39367"/>
<path d="M205.744 6.59169L197.754 14.5819L205.744 22.5721L213.734 14.5819L205.744 6.59169Z" fill="#C39367"/>
<path d="M228.605 115.562L220.615 123.552L228.605 131.542L236.596 123.552L228.605 115.562Z" fill="#C39367"/>
<path d="M118.279 79.9735L110.289 87.9637L118.279 95.954L126.269 87.9637L118.279 79.9735Z" fill="#C39367"/>
<path d="M299.7 101H288.4V112.3H299.7V101Z" fill="#C39367"/>
<path d="M322.4 123.6H311.1V134.9H322.4V123.6Z" fill="#C39367"/>
<path d="M311 112.3H299.7V123.6H311V112.3Z" fill="#C39367"/>
<path d="M354.8 24.0999V35.4H366.1V46.6999H377.5V12.7H343.5V24.0999H354.8Z" fill="#C39367"/>
<path d="M274 126.1L248.5 151.6L274 177.1L299.5 151.6L274 126.1ZM274 161.1L264.5 151.6L274 142.1L283.5 151.6L274 161.1Z" fill="#C39367"/>
<path d="M195.8 142.4C181.7 142.4 170.3 153.8 170.3 167.9C170.3 182 181.7 193.4 195.8 193.4C209.9 193.4 221.3 182 221.3 167.9C221.3 153.8 209.9 142.4 195.8 142.4ZM195.8 182.1C188 182.1 181.6 175.8 181.6 167.9C181.6 160.1 187.9 153.7 195.8 153.7C203.6 153.7 210 160 210 167.9C209.9 175.7 203.6 182.1 195.8 182.1Z" fill="#C39367"/>
<path d="M53.4 5.49998C56.548 5.49998 59.0999 2.948 59.0999 -0.200026C59.0999 -3.34805 56.548 -5.90002 53.4 -5.90002C50.2519 -5.90002 47.7 -3.34805 47.7 -0.200026C47.7 2.948 50.2519 5.49998 53.4 5.49998Z" fill="#C39367"/>
<path d="M53.4 19.7001C50.3 19.7001 47.7 17.2 47.7 14C47.7 10.9 50.2 8.30005 53.4 8.30005C56.5 8.30005 59.0999 10.8 59.0999 14C59.0999 17.1 56.5 19.7001 53.4 19.7001Z" fill="#C39367"/>
<path d="M153.2 34.8C143.8 34.8 136.2 42.4001 136.2 51.8001C136.2 61.2001 143.8 68.8001 153.2 68.8001C162.6 68.8001 170.2 61.2001 170.2 51.8001C170.3 42.4001 162.6 34.8 153.2 34.8ZM153.2 57.5C150.1 57.5 147.5 55.0001 147.5 51.8001C147.5 48.7001 150 46.1 153.2 46.1C156.3 46.1 158.9 48.6001 158.9 51.8001C158.9 54.9001 156.4 57.5 153.2 57.5Z" fill="#C39367"/>
<path d="M91.3 27.6L99.4 19.6L101.4 17.6L103.4 19.6L111.4 27.6L119.4 19.6L121.4 17.6L129.4 9.6L121.4 1.5L116.6 6.4L111.4 11.6L109.4 9.5L101.4 1.5L91.3 11.5L83.3 19.6L91.3 27.6Z" fill="#C39367"/>
<path d="M108.8 183.6V169.4H123V155.2H137.2V129.7H125.9V143.8H111.7V158H97.5V172.2H83.3V183.6H108.8Z" fill="#C39367"/>
<path d="M162.7 114L170.7 106L172.7 104L174.7 106L182.7 114L190.8 106L192.8 104L200.8 95.9L192.8 87.9L187.9 92.8L182.7 97.9L180.7 95.9L172.7 87.9L162.7 97.9L154.7 106L162.7 114Z" fill="#C39367"/>
<path d="M349.1 69.5H341.1L326.6 84V92H334.6L349.1 77.5V69.5Z" fill="#C39367"/>
<path d="M242.3 0.499975C245.448 0.499975 248 -2.052 248 -5.20002C248 -8.34805 245.448 -10.9 242.3 -10.9C239.152 -10.9 236.6 -8.34805 236.6 -5.20002C236.6 -2.052 239.152 0.499975 242.3 0.499975Z" fill="#C39367"/>
<path d="M269.3 16.1C269.3 19.2 266.8 21.8 263.6 21.8C260.5 21.8 257.9 19.3 257.9 16.1C257.9 13 260.4 10.4 263.6 10.4C266.7 10.4 269.3 13 269.3 16.1Z" fill="#C39367"/>
<path d="M258.7 5.50005C258.7 8.60005 256.2 11.2001 253 11.2001C249.9 11.2001 247.3 8.70005 247.3 5.50005C247.3 2.30005 249.8 -0.199951 253 -0.199951C256.2 -0.199951 258.7 2.40005 258.7 5.50005Z" fill="#C39367"/>
<path d="M248 16.2C248 19.3 245.5 21.9 242.3 21.9C239.2 21.9 236.6 19.4 236.6 16.2C236.6 13 239.1 10.5 242.3 10.5C245.5 10.5 248 13 248 16.2Z" fill="#C39367"/>
<path d="M269.1 -5.10005C269.1 -2.00005 266.6 0.599952 263.4 0.599952C260.3 0.599952 257.7 -1.90005 257.7 -5.10005C257.7 -8.20005 260.2 -10.8 263.4 -10.8C266.6 -10.8 269.1 -8.20005 269.1 -5.10005Z" fill="#C39367"/>
<path d="M274 63.9H262.6C262.5 73.2 255 80.8 245.6 80.8C236.3 80.8 228.7 73.3 228.6 63.9H217.2C217.2 79.5 229.9 92.2 245.5 92.2C261.3 92.1 274 79.5 274 63.9Z" fill="#C39367"/>
<path d="M262.7 63.9C262.7 54.5 255.1 46.9 245.7 46.9C236.3 46.9 228.7 54.5 228.7 63.9H262.7Z" fill="#C39367"/>
</g>
</g>
</svg>
