<svg width="64" height="64" viewBox="0 0 64 64" fill="none" xmlns="http://www.w3.org/2000/svg">
<path d="M54.4 11H39.3V8.59998C39.3 8.29998 39.1 8.09998 38.8 8.09998H25.2C24.9 8.09998 24.7 8.29998 24.7 8.59998V11H9.59998C9.29998 11 9.09998 11.2 9.09998 11.5V43.8C9.09998 44.1 9.29998 44.3 9.59998 44.3H23.2L19.5 54.5C19.3 55.1 19.6 55.7 20.2 55.9C20.3 55.9 20.4 56 20.6 56C21.1 56 21.5 55.7 21.6 55.3L23.6 49.7H40.2L42.2 55.3C42.4 55.7 42.8 56 43.2 56C43.3 56 43.4 56 43.6 55.9C44.2 55.7 44.5 55.1 44.3 54.5L40.6 44.3H54.3C54.6 44.3 54.8 44.1 54.8 43.8V11.5C54.9 11.2 54.6 11 54.4 11ZM24.4 47.5L25.6 44.3H38.3L39.5 47.5H24.4ZM40 35.4L32 27.4L24 35.4L16 27.4L24 19.4L32 27.4L40 19.4L48 27.4L40 35.4Z" fill="#C39367"/>
</svg>
