<?xml version="1.0" encoding="UTF-8" standalone="no"?>
<!DOCTYPE svg PUBLIC "-//W3C//DTD SVG 1.1//EN" "http://www.w3.org/Graphics/SVG/1.1/DTD/svg11.dtd">
<svg width="100%" height="100%" viewBox="0 0 100 80" version="1.1" xmlns="http://www.w3.org/2000/svg" xmlns:xlink="http://www.w3.org/1999/xlink" xml:space="preserve" xmlns:serif="http://www.serif.com/" style="fill-rule:evenodd;clip-rule:evenodd;stroke-linejoin:round;stroke-miterlimit:2;">
    <path d="M76.1,21C78.1,28.2 80.1,35.4 82.2,42.7C81.4,42.9 80.6,43.2 79.8,43.3C78.6,43.4 77.9,43.9 77.2,44.9C76.2,46.4 74.8,47.6 73.2,48.5C73.1,48.6 72.9,48.7 72.8,48.7C74,50.8 74,52.3 72.8,53.7C71.4,55.3 69.7,55.4 67.9,54.5C67.9,56.1 67.3,57.5 65.9,58.4C64.6,59.3 63.1,59.4 61.6,58.8C61.6,60.3 61,61.6 59.7,62.4C58.4,63.2 57,63.2 55.6,62.5C55.4,63.7 54.7,64.5 53.5,64.8C52.3,65.1 51.4,64.3 50.4,63.8C50,64.3 49.7,64.8 49.3,65.2C48.6,65.9 47.8,66.5 46.8,66.6C45.1,66.9 43.8,65.6 43.9,63.8C43.9,63.7 43.9,63.5 44,63.3C43.8,63.4 43.7,63.6 43.5,63.6C42.8,63.9 42.1,64.4 41.4,64.6C39.2,65.1 37.5,63.5 37.8,61.2C37.8,61 37.8,60.8 37.9,60.5C37.7,60.7 37.6,60.8 37.4,60.9C36.7,61.5 35.9,62 35,62.3C32.5,63.1 30.6,61.4 30.9,58.8C31,58.3 31.1,57.9 31.1,57.4C30.7,57.7 30.3,57.9 29.9,58.1C28.6,58.8 27.2,59 26,58C24.8,57.1 24.7,55.7 24.9,54.3C25.1,53.2 25.7,52.2 26.5,51.3C25.5,50.3 24.5,49.4 23.2,48.9C21.6,48.3 20,47.7 18.4,47.2C17.9,47 17.8,46.9 18,46.3C20.7,39.4 23.3,32.5 26,25.6C26.1,25.3 26.2,25.1 26.3,24.8C26.4,24.4 26.7,24.3 27,24.5C27.9,24.8 28.8,25.1 29.7,25.5C31.2,26 32.7,26 34.1,25.4C35.9,24.6 37.7,23.7 39.5,23C41.6,22.2 43.7,21.5 45.8,20.7C47.2,20.2 48.5,20.4 49.7,21.2C50.1,21.5 50.5,21.5 50.9,21.3C52,20.7 53.3,20.7 54.4,21C56.7,21.7 59.2,21.7 61.5,22.3C62.2,22.5 62.9,22.6 63.6,22.8C64.3,23 65.1,23 65.8,22.8C69,22.2 72.2,21.5 75.4,20.9C75.8,21 75.9,21 76.1,21ZM46.3,59.9C46.4,59.8 46.5,59.8 46.6,59.8C47.6,59.3 48.7,59 49.7,59.8C50.7,60.5 50.8,61.6 50.7,62.7C50.7,62.8 50.8,63.1 50.9,63.1C51.3,63.4 51.7,63.6 52.2,63.8C53.4,64.4 54.8,63.5 54.7,62.1C54.7,61.9 54.5,61.6 54.3,61.4C53.4,60.7 52.5,60 51.6,59.3C50.6,58.5 49.6,57.8 48.6,57C48.5,56.9 48.5,56.6 48.4,56.4C48.6,56.4 48.8,56.3 49,56.4C49.1,56.4 49.2,56.5 49.2,56.6C50.7,57.7 52.1,58.8 53.6,59.9C54.1,60.3 54.7,60.7 55.2,61.2C56.1,62.1 57.5,62.4 58.7,61.9C59.9,61.4 60.6,60.1 60.5,58.8C60.5,58.3 60.3,58 59.9,57.7C59.5,57.4 59.2,57.1 58.9,56.8C57.3,55.3 55.7,53.9 54,52.4C53.8,52.2 53.7,52 53.9,51.7C54.1,51.4 54.4,51.5 54.6,51.7L54.7,51.8C56.8,53.7 58.8,55.5 60.9,57.4C61.9,58.4 63.1,58.6 64.4,58.1C65.7,57.6 66.5,56.7 66.7,55.3C66.8,54.4 66.7,53.6 65.9,53C63.6,50.9 61.4,48.8 59.2,46.7C59,46.5 58.8,46.3 59.1,46C59.3,45.7 59.6,45.9 59.8,46.1C59.9,46.2 59.9,46.2 60,46.3C62.5,48.7 65.1,51.1 67.6,53.5C68.8,54.6 70.6,54.6 71.8,53.4C72.9,52.2 72.9,50.4 71.7,49.2C69.6,47 67.6,44.8 65.5,42.6C64,41 62.5,39.3 60.9,37.8C58.9,35.9 56.7,34.1 54.6,32.3C54.5,32.2 54.2,32.1 54,32.2C51.8,32.8 49.6,33 47.3,32.7C47,32.7 46.8,32.8 46.7,33C45.3,35.4 43.5,37.4 41.2,38.9C39,40.4 36,39.7 34.6,37.5C34.2,36.9 34.2,36.3 34.5,35.6C35.9,33.1 37.3,30.5 38.7,27.9C39.2,26.9 40,26.2 41,25.8C42.9,24.9 44.8,24.1 46.7,23.2C47.6,22.8 48.4,22.4 49.3,22C48.2,21.3 47.2,21.2 46,21.5C45.6,21.6 45.2,21.8 44.8,21.9C41.6,22.9 38.5,24.1 35.5,25.6C33.3,26.7 31,27 28.6,26C28,25.7 27.4,25.6 26.8,25.3C24.1,32.3 21.4,39.3 18.6,46.4C19.7,46.8 20.7,47.2 21.8,47.5C23,47.9 24.2,48.3 25.2,49.1C25.8,49.6 26.4,50.1 26.9,50.5C27.6,50.2 28.3,49.8 29,49.6C31.2,49.1 32.9,50.4 33,52.6L33,53.6L33.1,53.6C33.2,53.5 33.3,53.4 33.4,53.3C34.2,52.5 35.2,51.9 36.3,51.6C38.6,50.9 40.3,52.2 40.3,54.6C40.3,55.1 40.2,55.6 40.2,56C40.9,55.7 41.6,55.2 42.4,54.9C44.3,54.3 46,55.2 46.3,57.1C46.4,57.6 46.3,58.2 46.3,58.8C46.4,59.4 46.3,59.6 46.3,59.9ZM81.1,42.1C81,41.9 81,41.7 81,41.6C79.2,35.2 77.4,28.8 75.6,22.4C75.5,22 75.4,21.9 75,22C72.3,22.5 69.7,23 67,23.6C65.6,23.9 64.3,23.9 62.9,23.5C61.6,23.1 60.2,22.9 58.8,22.7C57.5,22.5 56.2,22.4 55,22C53.8,21.6 52.6,21.5 51.4,22.1C48.1,23.6 44.7,25.1 41.4,26.7C40.7,27 40.1,27.6 39.7,28.2C38.3,30.8 36.9,33.4 35.4,36C35.3,36.2 35.3,36.5 35.4,36.7C36.2,38.5 39,39.3 40.7,38.3C43.1,36.7 45,34.7 46.4,32.1C46.6,31.7 46.8,31.6 47.2,31.7C49.7,32.1 52.1,31.9 54.5,31.1C54.8,31 55,31.1 55.2,31.3C55.8,31.8 56.5,32.4 57.1,32.9C59.7,35 62.7,36 66.1,35.6C66.5,35.5 66.9,35.5 67.3,35.5C67.3,35.5 67.3,35.6 67.4,35.6C67.1,35.8 66.8,36 66.4,36.1C64.4,36.9 62.5,36.4 60.5,35.9C61.2,36.5 61.8,37 62.4,37.6C65.6,41 68.7,44.3 71.8,47.7C72.1,48 72.2,48 72.6,47.8C74.6,46.7 76.2,45.2 77.3,43.2C77.5,42.8 77.8,42.7 78.2,42.6C79.1,42.5 80.1,42.3 81.1,42.1ZM39.6,55.3C39.6,53 38.4,52.1 36.5,52.7C36.4,52.7 36.3,52.8 36.3,52.8C34.6,53.5 33.4,54.8 32.5,56.3C32,57.3 31.6,58.3 31.7,59.4C31.8,61.1 32.9,61.9 34.5,61.5C35.4,61.3 36.2,60.8 37,60.1C38.4,58.8 39.5,57.1 39.6,55.3ZM45.7,58.4C45.8,56.6 44.6,55.6 42.9,56.1C40.7,56.6 38.5,59.5 38.6,61.8C38.7,63.4 39.8,64.3 41.4,63.8C43.6,63.2 45.6,60.7 45.7,58.4ZM32.3,53C32.3,51.3 31.1,50.3 29.4,50.6C27.4,51 25.5,53.4 25.6,55.5C25.7,57.2 27,58.2 28.6,57.7C30.7,57.2 32.3,55 32.3,53ZM49.9,61.9C49.9,60.6 49,59.9 47.8,60.2C46.2,60.6 44.7,62.5 44.8,64.2C44.9,65.4 45.8,66.1 47,65.8C48.5,65.4 49.9,63.5 49.9,61.9Z" style="fill:white;fill-rule:nonzero;"/>
    <path d="M6.6,44.3C9.9,35.7 13.2,27.2 16.5,18.7C16.7,18.8 16.8,18.8 17,18.8C19.5,19.8 21.9,20.8 24.4,21.6C25.9,22.1 26.6,23.4 25.9,25.1C24.7,27.9 23.7,30.8 22.6,33.6C21,37.8 19.4,41.9 17.8,46.1C17.3,47.4 16.1,47.9 14.8,47.4C12.2,46.4 9.6,45.4 7,44.4C6.8,44.5 6.7,44.4 6.6,44.3ZM7.6,43.9C10.1,44.9 12.5,45.8 14.9,46.7C15.9,47.1 16.5,46.8 16.9,45.8C18.7,41.1 20.6,36.4 22.4,31.7C23.3,29.3 24.2,27 25.1,24.6C25.5,23.6 25.2,23 24.2,22.6C22.4,21.9 20.5,21.2 18.7,20.5C18.1,20.3 17.6,20.1 17,19.8C13.9,27.8 10.8,35.8 7.6,43.9Z" style="fill:white;fill-rule:nonzero;"/>
    <path d="M93.4,41.7C91.2,42.3 89,42.8 86.9,43.4C86.3,43.6 85.7,43.7 85.1,43.9C83.8,44.2 82.7,43.6 82.4,42.3C80.7,36.2 79,30 77.3,23.9C77,23 76.8,22.1 76.5,21.2C76.1,19.8 76.7,18.6 78.2,18.3C80.8,17.6 83.4,17 86,16.3C86.1,16.3 86.2,16.3 86.4,16.2C88.7,24.6 91,33.1 93.4,41.7ZM85.7,17.2L85.5,17.2C83,17.8 80.6,18.4 78.1,19.1C77.3,19.3 77,20 77.2,20.7C77.4,21.3 77.5,22 77.7,22.6C79.5,29 81.3,35.4 83.1,41.8C83.4,42.9 84,43.2 85.1,42.9C86.8,42.5 88.4,42.1 90.1,41.6C90.9,41.4 91.6,41.2 92.4,41C90.1,33.1 87.9,25.1 85.7,17.2Z" style="fill:white;fill-rule:nonzero;"/>
    <path d="M12,41.5C12.1,40.5 12.4,39.6 13.2,38.8C13.5,38.5 14,38.2 14.5,38.4C15,38.6 15.2,39 15.3,39.5C15.4,40.7 15,41.8 14.1,42.7C13.7,43.1 13.3,43.2 12.8,43C12.3,42.8 12.2,42.4 12.1,41.9C12,41.8 12,41.7 12,41.5ZM12.8,41.7C12.8,41.8 12.9,42 13,42.2C13.2,42.1 13.4,42 13.6,41.8C14.1,41.2 14.3,40.5 14.3,39.7C14.3,39.5 14.2,39.3 14.1,39.2C13.9,39.3 13.7,39.3 13.6,39.5C13.1,40.1 12.9,40.8 12.8,41.7Z" style="fill:white;fill-rule:nonzero;"/>
    <path d="M85,38.1C85.1,37.6 85.2,37.1 85.4,36.7C85.7,36.1 86.4,36 87,36.4C88,37.2 88.4,39.3 87.8,40.4C87.4,41.1 86.6,41.2 86,40.6C85.4,40 85.2,39.1 85,38.1ZM86.3,37.1C85.6,37.8 86,39.8 86.9,40.2C87.6,39.5 87.2,37.5 86.3,37.1Z" style="fill:white;fill-rule:nonzero;"/>
</svg>
