<svg width="64" height="64" viewBox="0 0 64 64" fill="none" xmlns="http://www.w3.org/2000/svg">
<path d="M49.8 34.5C49.9 33.6 50 32.8 50 32C50 31.2 49.9 30.4 49.8 29.5L54.9 25.3C55.3 25 55.4 24.5 55.1 24L50.5 16C50.3 15.6 49.7 15.4 49.3 15.6L43.1 17.9C41.8 16.9 40.3 16 38.7 15.4L37.6 8.90001C37.5 8.40001 37.1 8.10001 36.6 8.10001H27.4C26.9 8.10001 26.5 8.40001 26.4 8.90001L25.3 15.4C23.7 16 22.2 16.9 20.9 17.9L14.7 15.6C14.2 15.4 13.7 15.6 13.5 16L8.90002 24C8.70002 24.4 8.80002 25 9.10002 25.3L14.2 29.5C14.1 30.4 14 31.2 14 32C14 32.8 14.1 33.6 14.2 34.5L9.10002 38.7C8.70002 39 8.60002 39.5 8.90002 40L13.5 48C13.7 48.4 14.3 48.6 14.7 48.4L20.9 46.1C22.2 47.1 23.7 48 25.3 48.6L26.4 55.1C26.5 55.6 26.9 55.9 27.4 55.9H36.6C37.1 55.9 37.5 55.6 37.6 55.1L38.7 48.6C40.3 48 41.8 47.1 43.1 46.1L49.3 48.4C49.8 48.6 50.3 48.4 50.5 48L55.1 40C55.3 39.6 55.2 39 54.9 38.7L49.8 34.5ZM32.1 40.2L24.1 32.2L32.1 24.2L40.1 32.2L32.1 40.2Z" fill="#C39367"/>
</svg>
