<svg width="64" height="64" viewBox="0 0 64 64" fill="none" xmlns="http://www.w3.org/2000/svg">
<path d="M51.9 25.5C51.9 14.5 43 5.59998 32 5.59998C21 5.59998 12.1 14.5 12.1 25.5C12.1 33.4 16.7 40.3 23.5 43.5C23.5 43.6 23.5 43.7 23.5 43.8V55.7C23.5 57.2 24.7 58.4 26.2 58.4H38.1C39.6 58.4 40.8 57.2 40.8 55.7V43.8C40.8 43.7 40.8 43.6 40.8 43.5C47.3 40.3 51.9 33.5 51.9 25.5ZM37.3 55.1H26.7V44.5C29.5 44.9 34.6 44.9 37.4 44.5V55.1H37.3ZM32 33.4L24 25.4L32 17.4L40 25.4L32 33.4Z" fill="#C39367"/>
</svg>
